<svg width="34" height="34" viewBox="0 0 34 34" fill="none" xmlns="http://www.w3.org/2000/svg">
<mask id="path-1-inside-1_211_2338" fill="white">
<path d="M20.0112 16.7646C19.8436 16.7646 19.688 16.7185 19.5497 16.6444V16.6464C19.5497 16.9101 19.4472 17.1577 19.2613 17.3432C19.0753 17.5292 18.8279 17.6317 18.5645 17.6317C18.3944 17.6317 18.2368 17.5844 18.0971 17.5083C18.083 17.7496 17.9865 17.9751 17.8145 18.1473C17.6285 18.3332 17.3811 18.4357 17.1175 18.4357C16.5939 18.4357 16.1686 18.0241 16.138 17.5082C15.976 17.5957 15.7928 17.6417 15.6039 17.6295C15.0887 17.5957 14.6853 17.1507 14.6853 16.616V12.1844L14.1807 13.0586C13.9885 13.393 13.6287 13.6006 13.2414 13.6006C13.0526 13.6006 12.8661 13.5511 12.701 13.4565C12.4954 13.3373 12.3483 13.1459 12.2871 12.9169C12.2256 12.6878 12.2574 12.4482 12.3763 12.2429C12.3765 12.2429 14.0274 9.38402 14.1281 9.2084C14.1401 9.182 14.1742 9.10542 14.2032 9.04015C14.2309 8.97783 14.2547 8.91388 14.2775 8.84959C14.7754 7.44403 16.0081 6.57093 17.4949 6.57093C19.4255 6.57093 20.9963 8.27414 20.9963 10.3677L20.9964 15.7792C20.9964 16.0426 20.8941 16.29 20.7083 16.4762C20.5223 16.6621 20.2749 16.7646 20.0112 16.7646L20.0112 16.7646ZM17.4949 7.09447C16.2174 7.09447 15.1991 7.81606 14.771 9.02468C14.7436 9.10143 14.715 9.17817 14.6818 9.25296C14.5852 9.46959 14.5852 9.46959 14.5579 9.50075L14.5543 9.49763C14.4195 9.75198 14.0191 10.4455 12.8296 12.5049C12.7808 12.5894 12.7678 12.6875 12.7927 12.7813C12.818 12.8751 12.8785 12.9541 12.9623 13.0025C13.2224 13.1519 13.5786 13.0555 13.7268 12.7972L14.7205 11.0769C14.7798 10.9744 14.8999 10.924 15.015 10.9552C15.1295 10.9859 15.209 11.0897 15.209 11.2081V16.6162C15.209 16.8714 15.4015 17.0916 15.6382 17.1072C15.7746 17.1144 15.9019 17.0686 15.9975 16.9732C16.0844 16.8863 16.1323 16.7705 16.1323 16.6467V13.1097C16.1323 12.9651 16.2495 12.8478 16.3942 12.8478C16.5388 12.8478 16.6561 12.9649 16.6561 13.1097L16.6559 17.4506C16.6559 17.7052 16.863 17.9123 17.1175 17.9123C17.2412 17.9123 17.3573 17.8644 17.4444 17.7775C17.5313 17.6904 17.5792 17.5743 17.5792 17.4506V13.1097C17.5792 12.9651 17.6963 12.8478 17.8411 12.8478C17.9857 12.8478 18.103 12.9649 18.103 13.1097L18.1028 16.606V16.6467C18.1028 16.901 18.3099 17.1081 18.5646 17.1081C18.6881 17.1081 18.8039 17.0601 18.8915 16.9728C18.9784 16.8861 19.0263 16.7703 19.0263 16.6465V13.1095C19.0263 12.9649 19.1434 12.8476 19.2882 12.8476C19.4328 12.8476 19.5501 12.9647 19.5501 13.1095L19.5497 15.7793C19.5497 16.034 19.7568 16.2411 20.0112 16.2411C20.135 16.2411 20.2508 16.1931 20.3377 16.1063C20.4249 16.0191 20.4727 15.903 20.4727 15.7793L20.4728 10.3678C20.4728 8.5631 19.137 7.09452 17.4949 7.09452L17.4949 7.09447Z"/>
</mask>
<path d="M20.0112 16.7646C19.8436 16.7646 19.688 16.7185 19.5497 16.6444V16.6464C19.5497 16.9101 19.4472 17.1577 19.2613 17.3432C19.0753 17.5292 18.8279 17.6317 18.5645 17.6317C18.3944 17.6317 18.2368 17.5844 18.0971 17.5083C18.083 17.7496 17.9865 17.9751 17.8145 18.1473C17.6285 18.3332 17.3811 18.4357 17.1175 18.4357C16.5939 18.4357 16.1686 18.0241 16.138 17.5082C15.976 17.5957 15.7928 17.6417 15.6039 17.6295C15.0887 17.5957 14.6853 17.1507 14.6853 16.616V12.1844L14.1807 13.0586C13.9885 13.393 13.6287 13.6006 13.2414 13.6006C13.0526 13.6006 12.8661 13.5511 12.701 13.4565C12.4954 13.3373 12.3483 13.1459 12.2871 12.9169C12.2256 12.6878 12.2574 12.4482 12.3763 12.2429C12.3765 12.2429 14.0274 9.38402 14.1281 9.2084C14.1401 9.182 14.1742 9.10542 14.2032 9.04015C14.2309 8.97783 14.2547 8.91388 14.2775 8.84959C14.7754 7.44403 16.0081 6.57093 17.4949 6.57093C19.4255 6.57093 20.9963 8.27414 20.9963 10.3677L20.9964 15.7792C20.9964 16.0426 20.8941 16.29 20.7083 16.4762C20.5223 16.6621 20.2749 16.7646 20.0112 16.7646L20.0112 16.7646ZM17.4949 7.09447C16.2174 7.09447 15.1991 7.81606 14.771 9.02468C14.7436 9.10143 14.715 9.17817 14.6818 9.25296C14.5852 9.46959 14.5852 9.46959 14.5579 9.50075L14.5543 9.49763C14.4195 9.75198 14.0191 10.4455 12.8296 12.5049C12.7808 12.5894 12.7678 12.6875 12.7927 12.7813C12.818 12.8751 12.8785 12.9541 12.9623 13.0025C13.2224 13.1519 13.5786 13.0555 13.7268 12.7972L14.7205 11.0769C14.7798 10.9744 14.8999 10.924 15.015 10.9552C15.1295 10.9859 15.209 11.0897 15.209 11.2081V16.6162C15.209 16.8714 15.4015 17.0916 15.6382 17.1072C15.7746 17.1144 15.9019 17.0686 15.9975 16.9732C16.0844 16.8863 16.1323 16.7705 16.1323 16.6467V13.1097C16.1323 12.9651 16.2495 12.8478 16.3942 12.8478C16.5388 12.8478 16.6561 12.9649 16.6561 13.1097L16.6559 17.4506C16.6559 17.7052 16.863 17.9123 17.1175 17.9123C17.2412 17.9123 17.3573 17.8644 17.4444 17.7775C17.5313 17.6904 17.5792 17.5743 17.5792 17.4506V13.1097C17.5792 12.9651 17.6963 12.8478 17.8411 12.8478C17.9857 12.8478 18.103 12.9649 18.103 13.1097L18.1028 16.606V16.6467C18.1028 16.901 18.3099 17.1081 18.5646 17.1081C18.6881 17.1081 18.8039 17.0601 18.8915 16.9728C18.9784 16.8861 19.0263 16.7703 19.0263 16.6465V13.1095C19.0263 12.9649 19.1434 12.8476 19.2882 12.8476C19.4328 12.8476 19.5501 12.9647 19.5501 13.1095L19.5497 15.7793C19.5497 16.034 19.7568 16.2411 20.0112 16.2411C20.135 16.2411 20.2508 16.1931 20.3377 16.1063C20.4249 16.0191 20.4727 15.903 20.4727 15.7793L20.4728 10.3678C20.4728 8.5631 19.137 7.09452 17.4949 7.09452L17.4949 7.09447Z" fill="#4CAF4F"/>
<path d="M20.0112 16.7646V15.8365H23.2902L20.4976 17.555L20.0112 16.7646ZM19.5497 16.6444H18.6216V15.0937L19.9883 15.8265L19.5497 16.6444ZM19.2613 17.3432L18.605 16.6869L18.6059 16.6861L19.2613 17.3432ZM18.0971 17.5083L17.1706 17.4542L17.256 15.9935L18.5409 16.6933L18.0971 17.5083ZM17.8145 18.1473L18.4711 18.8032L18.4708 18.8035L17.8145 18.1473ZM16.138 17.5082L15.6967 16.6917L16.9781 15.9992L17.0645 17.4531L16.138 17.5082ZM15.6039 17.6295L15.5444 18.5557L15.5431 18.5556L15.6039 17.6295ZM14.6853 12.1844L13.8815 11.7204L15.6134 8.72004V12.1844H14.6853ZM14.1807 13.0586L13.3761 12.5961L13.3769 12.5947L14.1807 13.0586ZM12.701 13.4565L12.2396 14.2618L12.2355 14.2594L12.701 13.4565ZM12.2871 12.9169L13.1835 12.6763L13.1837 12.6774L12.2871 12.9169ZM12.3763 12.2429L11.5731 11.7779L11.8412 11.3148H12.3763V12.2429ZM14.1281 9.2084L14.9734 9.59166L14.9551 9.63185L14.9332 9.67013L14.1281 9.2084ZM14.2032 9.04015L13.3552 8.66302L13.3552 8.66301L14.2032 9.04015ZM14.2775 8.84959L15.1523 9.15946L15.1522 9.15972L14.2775 8.84959ZM20.9963 10.3677L20.0682 10.3677V10.3677H20.9963ZM20.9964 15.7792L21.9245 15.7792V15.7792H20.9964ZM20.7083 16.4762L21.3652 17.1318L21.3645 17.1324L20.7083 16.4762ZM20.0112 16.7646V17.6927H16.7322L19.5248 15.9742L20.0112 16.7646ZM17.4949 7.09447V6.16638H18.7253L18.3873 7.34944L17.4949 7.09447ZM14.771 9.02468L15.6458 9.3346L15.6451 9.3366L14.771 9.02468ZM14.6818 9.25296L15.5296 9.63041L15.5294 9.6309L14.6818 9.25296ZM14.5579 9.50075L15.2568 10.1114L14.6497 10.8063L13.9513 10.2031L14.5579 9.50075ZM14.5543 9.49763L13.7343 9.06303L14.2796 8.03407L15.1609 8.79523L14.5543 9.49763ZM12.8296 12.5049L13.6333 12.9691L13.6329 12.9698L12.8296 12.5049ZM12.7927 12.7813L11.8965 13.0225L11.8958 13.0196L12.7927 12.7813ZM12.9623 13.0025L12.5 13.8073L12.4983 13.8063L12.9623 13.0025ZM13.7268 12.7972L12.9219 12.3352L12.9232 12.333L13.7268 12.7972ZM14.7205 11.0769L13.9168 10.6127L13.9174 10.6117L14.7205 11.0769ZM15.015 10.9552L14.7748 11.8517L14.7725 11.851L15.015 10.9552ZM15.6382 17.1072L15.5892 18.034L15.5772 18.0333L15.6382 17.1072ZM15.9975 16.9732L16.6537 17.6295L16.6532 17.63L15.9975 16.9732ZM16.6561 13.1097H17.5842V13.1097L16.6561 13.1097ZM16.6559 17.4506H15.7278V17.4506L16.6559 17.4506ZM17.4444 17.7775L18.1013 18.4331L18.1 18.4344L17.4444 17.7775ZM18.103 13.1097H19.0311V13.1097L18.103 13.1097ZM18.1028 16.606H17.1747V16.606L18.1028 16.606ZM18.8915 16.9728L19.5471 17.6297L19.5465 17.6303L18.8915 16.9728ZM19.5501 13.1095H20.4781V13.1096L19.5501 13.1095ZM19.5497 15.7793H18.6216V15.7792L19.5497 15.7793ZM20.3377 16.1063L20.994 16.7626L20.9933 16.7632L20.3377 16.1063ZM20.4727 15.7793H19.5446V15.7793L20.4727 15.7793ZM20.4728 10.3678H21.4009V10.3679L20.4728 10.3678ZM17.4949 7.09452V8.02262H16.2645L16.6025 6.83956L17.4949 7.09452ZM20.0112 17.6927C19.6695 17.6927 19.3644 17.5981 19.1112 17.4623L19.9883 15.8265C20.0003 15.8329 20.0079 15.8354 20.0109 15.8362C20.0135 15.8369 20.0132 15.8365 20.0112 15.8365V17.6927ZM20.4778 16.6444V16.6464H18.6216V16.6444H20.4778ZM20.4778 16.6464C20.4778 17.1555 20.2781 17.6399 19.9167 18.0003L18.6059 16.6861C18.6125 16.6795 18.6158 16.6738 18.6177 16.6692C18.6196 16.6645 18.6216 16.6574 18.6216 16.6464H20.4778ZM19.9175 17.9995C19.5574 18.3596 19.0738 18.5598 18.5645 18.5598V16.7036C18.5751 16.7036 18.5821 16.7016 18.5869 16.6997C18.5916 16.6977 18.5978 16.6942 18.605 16.6869L19.9175 17.9995ZM18.5645 18.5598C18.2183 18.5598 17.9093 18.4629 17.6532 18.3234L18.5409 16.6933C18.553 16.6999 18.5607 16.7024 18.5637 16.7032C18.5663 16.7039 18.5661 16.7036 18.5645 16.7036V18.5598ZM19.0236 17.5625C18.9969 18.0193 18.8116 18.4624 18.4711 18.8032L17.1579 17.4914C17.1614 17.4879 17.1633 17.4849 17.165 17.481C17.1669 17.4768 17.1697 17.4683 17.1706 17.4542L19.0236 17.5625ZM18.4708 18.8035C18.1105 19.1638 17.6269 19.3638 17.1175 19.3638V17.5076C17.1283 17.5076 17.1354 17.5057 17.1401 17.5037C17.1449 17.5017 17.151 17.4983 17.1583 17.491L18.4708 18.8035ZM17.1175 19.3638C16.0929 19.3638 15.2707 18.5597 15.2115 17.5632L17.0645 17.4531C17.0654 17.4689 17.0719 17.4828 17.0833 17.4937C17.0889 17.499 17.0945 17.5024 17.0994 17.5044C17.1037 17.5062 17.1092 17.5076 17.1175 17.5076V19.3638ZM16.5793 18.3247C16.2795 18.4867 15.9241 18.5801 15.5444 18.5557L15.6634 16.7033C15.6634 16.7033 15.6654 16.7035 15.6703 16.7024C15.6755 16.7012 15.6846 16.6983 15.6967 16.6917L16.5793 18.3247ZM15.5431 18.5556C14.5126 18.4881 13.7572 17.6117 13.7572 16.616H15.6134C15.6134 16.6474 15.6248 16.6716 15.6391 16.6873C15.653 16.7027 15.6625 16.7033 15.6646 16.7034L15.5431 18.5556ZM13.7572 16.616V12.1844H15.6134V16.616H13.7572ZM15.4891 12.6484L14.9845 13.5226L13.3769 12.5947L13.8815 11.7204L15.4891 12.6484ZM14.9854 13.5211C14.6267 14.1451 13.9592 14.5287 13.2414 14.5287V12.6725C13.2983 12.6725 13.3503 12.641 13.3761 12.5961L14.9854 13.5211ZM13.2414 14.5287C12.8904 14.5287 12.5449 14.4367 12.2396 14.2618L13.1624 12.6512C13.1874 12.6655 13.2148 12.6725 13.2414 12.6725V14.5287ZM12.2355 14.2594C11.8188 14.0178 11.5156 13.6247 11.3905 13.1565L13.1837 12.6774C13.1829 12.6742 13.1806 12.6686 13.1761 12.6628C13.1717 12.657 13.1676 12.6542 13.1665 12.6536L12.2355 14.2594ZM11.3907 13.1575C11.2651 12.6897 11.3309 12.1962 11.5731 11.7779L13.1795 12.708C13.1808 12.7057 13.1831 12.7004 13.1841 12.6929C13.1851 12.6854 13.1843 12.6794 13.1835 12.6763L11.3907 13.1575ZM12.3763 11.3148C11.921 11.4342 11.5803 11.7657 11.5777 11.77C11.5769 11.7714 11.5756 11.7736 11.5752 11.7743C11.575 11.7747 11.5746 11.7754 11.5745 11.7756C11.5744 11.7757 11.5742 11.776 11.5742 11.7761C11.574 11.7763 11.5741 11.7762 11.5744 11.7756C11.5751 11.7745 11.5761 11.7727 11.5777 11.7701C11.5807 11.7648 11.5853 11.7569 11.5913 11.7464C11.6034 11.7255 11.6212 11.6947 11.6438 11.6555C11.6892 11.577 11.7541 11.4647 11.8322 11.3293C11.9886 11.0586 12.1981 10.6958 12.4107 10.3275C12.8368 9.58959 13.2735 8.83294 13.323 8.74668L14.9332 9.67013C14.8819 9.75948 14.4429 10.5201 14.0182 11.2556C13.8056 11.6239 13.596 11.9868 13.4396 12.2576C13.3614 12.393 13.2965 12.5054 13.2511 12.5839C13.2285 12.6232 13.2106 12.6541 13.1985 12.6751C13.1924 12.6856 13.1877 12.6938 13.1845 12.6994C13.1829 12.7021 13.1816 12.7044 13.1806 12.706C13.1801 12.7068 13.1796 12.7078 13.1791 12.7087C13.1789 12.709 13.1783 12.7101 13.1775 12.7113C13.1771 12.7121 13.1758 12.7143 13.1749 12.7157C13.1723 12.7201 12.8316 13.0517 12.3763 13.171V11.3148ZM13.2828 8.82515C13.293 8.80261 13.3254 8.72997 13.3552 8.66302L15.0512 9.41728C15.0229 9.48087 14.9871 9.56139 14.9734 9.59166L13.2828 8.82515ZM13.3552 8.66301C13.3681 8.63401 13.3824 8.59695 13.4027 8.53946L15.1522 9.15972C15.127 9.23081 15.0937 9.32165 15.0512 9.41729L13.3552 8.66301ZM13.4027 8.53971C14.0312 6.7651 15.6134 5.64283 17.4949 5.64283V7.49902C16.4028 7.49902 15.5195 8.12296 15.1523 9.15946L13.4027 8.53971ZM17.4949 5.64283C20.0075 5.64283 21.9244 7.83377 21.9244 10.3677H20.0682C20.0682 8.71451 18.8436 7.49902 17.4949 7.49902V5.64283ZM21.9244 10.3677L21.9245 15.7792L20.0683 15.7792L20.0682 10.3677L21.9244 10.3677ZM21.9245 15.7792C21.9245 16.2881 21.7248 16.7715 21.3652 17.1318L20.0514 15.8205C20.0588 15.8132 20.0623 15.8069 20.0643 15.8021C20.0664 15.7972 20.0683 15.79 20.0683 15.7792H21.9245ZM21.3645 17.1324C21.0043 17.4927 20.5207 17.6927 20.0112 17.6927V15.8365C20.0221 15.8365 20.0292 15.8346 20.0339 15.8326C20.0387 15.8306 20.0448 15.8272 20.052 15.8199L21.3645 17.1324ZM19.5248 15.9742L19.5248 15.9742L20.4976 17.555L20.4976 17.5551L19.5248 15.9742ZM17.4949 8.02256C16.6125 8.02256 15.9434 8.4946 15.6458 9.3346L13.8961 8.71476C14.4549 7.13751 15.8223 6.16638 17.4949 6.16638V8.02256ZM15.6451 9.3366C15.6158 9.4187 15.5777 9.52238 15.5296 9.63041L13.8339 8.8755C13.8524 8.83397 13.8714 8.78416 13.8969 8.71276L15.6451 9.3366ZM15.5294 9.6309C15.4869 9.72622 15.4513 9.80672 15.424 9.86125C15.4071 9.89509 15.3798 9.94725 15.3401 10.005C15.2998 10.0636 15.2601 10.1077 15.2568 10.1114L13.859 8.89009C13.8612 8.8876 13.8605 8.88841 13.8594 8.88969C13.858 8.89134 13.8544 8.89554 13.8496 8.90131C13.8447 8.90729 13.8386 8.915 13.8316 8.92418C13.8246 8.93344 13.8175 8.94329 13.8103 8.95368C13.7958 8.97484 13.7846 8.99337 13.7766 9.00739C13.7692 9.02047 13.7646 9.02953 13.7636 9.03157C13.7626 9.03367 13.7632 9.03243 13.7664 9.02568C13.7694 9.01914 13.7738 9.00972 13.78 8.996C13.7861 8.9824 13.7935 8.96599 13.8026 8.94569C13.8116 8.92543 13.822 8.90222 13.8341 8.87501L15.5294 9.6309ZM13.9513 10.2031L13.9477 10.2L15.1609 8.79523L15.1646 8.79835L13.9513 10.2031ZM15.3744 9.93223C15.2291 10.2063 14.8144 10.924 13.6333 12.9691L12.0259 12.0408C13.2237 9.96697 13.6099 9.29766 13.7343 9.06303L15.3744 9.93223ZM13.6329 12.9698C13.7072 12.8414 13.7279 12.6866 13.6897 12.5429L11.8958 13.0196C11.8077 12.6883 11.8543 12.3373 12.0263 12.0401L13.6329 12.9698ZM13.6889 12.54C13.6507 12.3981 13.5568 12.2741 13.4263 12.1987L12.4983 13.8063C12.2001 13.6341 11.9852 13.352 11.8965 13.0225L13.6889 12.54ZM13.4246 12.1977C13.3189 12.137 13.2162 12.1374 13.1452 12.1565C13.0745 12.1756 12.9839 12.2271 12.9219 12.3352L14.5318 13.2591C14.1273 13.9639 13.2029 14.211 12.5 13.8073L13.4246 12.1977ZM12.9232 12.333L13.9168 10.6127L15.5241 11.5411L14.5305 13.2614L12.9232 12.333ZM13.9174 10.6117C14.1854 10.1489 14.7326 9.91727 15.2575 10.0593L14.7725 11.851C15.0671 11.9308 15.3742 11.7999 15.5236 11.542L13.9174 10.6117ZM15.2552 10.0587C15.7758 10.1982 16.1371 10.67 16.1371 11.2081H14.2809C14.2809 11.5093 14.4831 11.7735 14.7748 11.8517L15.2552 10.0587ZM16.1371 11.2081V16.6162H14.2809V11.2081H16.1371ZM16.1371 16.6162C16.1371 16.5104 16.0979 16.4143 16.0336 16.3407C15.9694 16.2673 15.8561 16.1914 15.6991 16.1811L15.5772 18.0333C14.7959 17.9818 14.2809 17.3013 14.2809 16.6162H16.1371ZM15.6872 16.1804C15.5775 16.1746 15.4436 16.2147 15.3418 16.3164L16.6532 17.63C16.3602 17.9225 15.9717 18.0542 15.5892 18.034L15.6872 16.1804ZM15.3412 16.3169C15.2531 16.405 15.2042 16.5257 15.2042 16.6467H17.0604C17.0604 17.0153 16.9157 17.3675 16.6537 17.6295L15.3412 16.3169ZM15.2042 16.6467V13.1097H17.0604V16.6467H15.2042ZM15.2042 13.1097C15.2042 12.4525 15.737 11.9197 16.3942 11.9197V13.7759C16.7621 13.7759 17.0604 13.4776 17.0604 13.1097H15.2042ZM16.3942 11.9197C17.051 11.9197 17.5842 12.4519 17.5842 13.1097H15.728C15.728 13.4778 16.0266 13.7759 16.3942 13.7759V11.9197ZM17.5842 13.1097L17.584 17.4507L15.7278 17.4506L15.728 13.1097L17.5842 13.1097ZM17.584 17.4506C17.584 17.1926 17.3756 16.9842 17.1175 16.9842V18.8404C16.3505 18.8404 15.7278 18.2177 15.7278 17.4506H17.584ZM17.1175 16.9842C16.9968 16.9842 16.8767 17.0329 16.7888 17.1206L18.1 18.4344C17.8379 18.6959 17.4856 18.8404 17.1175 18.8404V16.9842ZM16.7875 17.1218C16.6998 17.2097 16.6511 17.3299 16.6511 17.4506H18.5073C18.5073 17.8187 18.3628 18.171 18.1013 18.4331L16.7875 17.1218ZM16.6511 17.4506V13.1097H18.5073V17.4506H16.6511ZM16.6511 13.1097C16.6511 12.4529 17.1833 11.9197 17.8411 11.9197V13.7759C18.2092 13.7759 18.5073 13.4772 18.5073 13.1097H16.6511ZM17.8411 11.9197C18.4979 11.9197 19.0311 12.4519 19.0311 13.1097H17.1749C17.1749 13.4778 17.4735 13.7759 17.8411 13.7759V11.9197ZM19.0311 13.1097L19.0309 16.606L17.1747 16.606L17.1749 13.1096L19.0311 13.1097ZM19.0309 16.606V16.6467H17.1747V16.606H19.0309ZM19.0309 16.6467C19.0309 16.388 18.8221 16.18 18.5646 16.18V18.0362C17.7978 18.0362 17.1747 17.414 17.1747 16.6467H19.0309ZM18.5646 16.18C18.4413 16.18 18.3219 16.2302 18.2364 16.3154L19.5465 17.6303C19.2859 17.89 18.9349 18.0362 18.5646 18.0362V16.18ZM18.2358 16.316C18.147 16.4046 18.0982 16.5257 18.0982 16.6465H19.9544C19.9544 17.015 19.8097 17.3676 19.5471 17.6297L18.2358 16.316ZM18.0982 16.6465V13.1095H19.9544V16.6465H18.0982ZM18.0982 13.1095C18.0982 12.4527 18.6304 11.9195 19.2882 11.9195V13.7757C19.6563 13.7757 19.9544 13.4771 19.9544 13.1095H18.0982ZM19.2882 11.9195C19.945 11.9195 20.4781 12.4518 20.4781 13.1095H18.622C18.622 13.4777 18.9206 13.7757 19.2882 13.7757V11.9195ZM20.4781 13.1096L20.4778 15.7794L18.6216 15.7792L18.622 13.1094L20.4781 13.1096ZM20.4778 15.7793C20.4778 15.5219 20.2699 15.313 20.0112 15.313V17.1692C19.2438 17.1692 18.6216 16.5461 18.6216 15.7793H20.4778ZM20.0112 15.313C19.8894 15.313 19.7693 15.3623 19.6821 15.4494L20.9933 16.7632C20.7322 17.0238 20.3806 17.1692 20.0112 17.1692V15.313ZM19.6814 15.4501C19.5931 15.5384 19.5446 15.659 19.5446 15.7793H21.4008C21.4008 16.1469 21.2568 16.4997 20.994 16.7626L19.6814 15.4501ZM19.5446 15.7793L19.5447 10.3678L21.4009 10.3679L21.4008 15.7793L19.5446 15.7793ZM19.5447 10.3678C19.5447 8.99109 18.5437 8.02262 17.4949 8.02262V6.16643C19.7302 6.16643 21.4009 8.13511 21.4009 10.3678H19.5447ZM16.6025 6.83956L16.6025 6.8395L18.3873 7.34944L18.3873 7.34949L16.6025 6.83956Z" fill="#4CAF4F" mask="url(#path-1-inside-1_211_2338)"/>
<path d="M11.5286 21.7395C11.4043 21.8143 11.2436 21.774 11.1693 21.6498C11.0949 21.5259 11.1352 21.365 11.259 21.2905M11.5286 21.7395L13.7912 18.695C14.0098 18.5637 14.2981 18.6155 14.4329 18.8105M11.5286 21.7395L14.5615 19.92H14.5617L14.562 19.9199M11.5286 21.7395L15.726 20.2982C15.8319 20.2346 15.9067 20.1339 15.9366 20.0143M11.259 21.2905L14.2921 19.471C14.398 19.4074 14.4729 19.3065 14.5028 19.1873M11.259 21.2905L11.2897 21.3417L11.3937 21.5151L11.3939 21.5154L11.4408 21.5935L11.4977 21.6885L11.4979 21.6884L11.4979 21.6884L11.4982 21.6882M11.259 21.2905L11.2898 21.3417M14.5028 19.1873C14.5356 19.0565 14.5107 18.9226 14.4329 18.8105M14.5028 19.1873L14.5776 19.2061L14.5705 19.0522C14.5656 18.9463 14.5346 18.8523 14.4822 18.7767L14.482 18.7765L14.4329 18.8105M14.5028 19.1873L14.5776 19.2061L14.585 19.3649L14.4332 19.456H14.433L14.3228 19.5221L14.3227 19.5221L14.3227 19.5221L11.2899 21.3416M14.4329 18.8105L14.482 18.7765L12.2427 22.929C12.3379 22.8717 12.3694 22.7478 12.3117 22.6517C12.2544 22.5563 12.1301 22.525 12.0344 22.5823L15.0673 20.7629C15.137 20.7211 15.21 20.6895 15.2846 20.6678L15.755 20.3466L15.755 20.3465L15.7809 20.3289C15.8913 20.2535 15.9643 20.1491 15.9943 20.0289L15.9943 20.0288L15.9366 20.0143M11.2899 21.3416C11.3853 21.2846 11.5096 21.3155 11.5671 21.4109C11.5673 21.4111 11.5674 21.4114 11.5675 21.4116C11.6247 21.5076 11.5932 21.6311 11.4982 21.6882M11.2899 21.3416C11.2899 21.3416 11.2898 21.3417 11.2898 21.3417M11.2899 21.3416L11.2898 21.3417M11.4982 21.6882L14.5308 19.869L14.5308 19.8689L14.531 19.8688C14.5311 19.8688 14.5312 19.8687 14.5313 19.8687L14.5615 19.9191L14.5617 19.9193L14.562 19.9199M11.4982 21.6882L11.3942 21.5153L11.394 21.5149L11.3588 21.4564L11.2898 21.3417M14.562 19.9199V19.8494C14.6205 19.8111 14.6741 19.7666 14.7219 19.7171L15.2211 19.4565L15.2211 19.4565L15.2488 19.442C15.329 19.4002 15.4099 19.3806 15.4868 19.3806C15.5284 19.3806 15.5713 19.3857 15.6149 19.3965C15.615 19.3966 15.615 19.3966 15.615 19.3966C15.6152 19.3966 15.6153 19.3966 15.6154 19.3967L15.7131 19.0043M14.562 19.9199L15.2511 19.5065C15.3567 19.4431 15.4803 19.4246 15.6005 19.4545C15.7201 19.4843 15.821 19.5591 15.8844 19.6649C15.9479 19.7708 15.9664 19.8949 15.9366 20.0143M15.7131 19.0043C15.7131 19.0043 15.7131 19.0043 15.7131 19.0043M15.7131 19.0043C15.9523 19.064 16.1556 19.215 16.2823 19.426L16.3334 19.3954M15.7131 19.0043L15.7276 18.9464M15.7131 19.0043L15.6151 19.3966C15.7508 19.4305 15.8633 19.5139 15.9354 19.634C15.9354 19.6341 15.9355 19.6342 15.9355 19.6342C15.9355 19.6342 15.9355 19.6342 15.9355 19.6343C16.0078 19.755 16.0282 19.8934 15.9944 20.0286L15.9943 20.0288L15.9366 20.0143M15.7131 19.0043C15.713 19.0043 15.713 19.0042 15.7129 19.0042L15.7124 19.0041C15.6407 18.9863 15.568 18.9772 15.4957 18.9765M15.7131 19.0043L15.7276 18.9464M15.2755 21.1096L15.5371 20.9527L15.8068 21.1118C15.8876 21.1594 15.9487 21.2191 15.99 21.2881L15.9901 21.2883C15.9902 21.2884 15.9902 21.2885 15.9903 21.2886L15.9393 21.3192M15.2755 21.1096L16.0493 21.6832C16.083 21.5475 16.0625 21.4092 15.9903 21.2886L15.9393 21.3192M15.2755 21.1096L15.3062 21.1608M15.2755 21.1096L15.2755 21.1096L15.3062 21.1608M15.9393 21.3192C15.8083 21.1009 15.5241 21.0299 15.3062 21.1608M15.9393 21.3192C16.003 21.425 16.0215 21.5493 15.9917 21.6688L15.3062 21.1608M16.3815 21.0389C16.3838 21.0425 16.386 21.0461 16.3881 21.0498L16.3815 21.0389ZM16.3815 21.0389C16.3659 21.0511 16.3499 21.0631 16.3338 21.0747C16.3348 21.0764 16.3359 21.0782 16.337 21.08L16.3815 21.0389ZM16.3093 20.3311C16.3427 20.267 16.3688 20.1986 16.3868 20.1269L16.3093 20.3311ZM16.3093 20.3311C16.326 20.3415 16.3425 20.3522 16.3588 20.3633C16.3961 20.294 16.425 20.2197 16.4445 20.1412C16.5083 19.8862 16.4688 19.6214 16.3334 19.3954M16.3093 20.3311L16.3868 20.1268C16.4465 19.8876 16.4089 19.6373 16.2825 19.4264L16.2823 19.4261C16.2823 19.4261 16.2823 19.426 16.2823 19.426L16.3334 19.3954M16.3334 19.3954C16.1981 19.1697 15.9829 19.0102 15.7276 18.9464M15.7276 18.9464L15.4905 18.9165M15.4905 18.9165C15.4926 18.9365 15.4944 18.9566 15.4957 18.9765M15.4905 18.9165C15.4893 18.9165 15.488 18.9165 15.4868 18.9165C15.3299 18.9165 15.1757 18.9567 15.034 19.0307M15.4905 18.9165L15.034 19.0307M15.4957 18.9765C15.4965 18.9874 15.4971 18.9983 15.4976 19.0091L15.4868 19.0096L15.1987 19.023M15.4957 18.9765C15.4928 18.9765 15.4898 18.9765 15.4868 18.9765C15.3889 18.9766 15.2918 18.9923 15.1987 19.023M15.1987 19.023L15.034 19.0307M15.1987 19.023C15.1515 19.0386 15.1053 19.0582 15.0606 19.0815C15.0443 19.09 15.0283 19.099 15.0125 19.1084L15.0123 19.1085L14.9793 19.1283M15.034 19.0307L14.7696 19.2542L14.7696 19.2541L14.9529 19.3C14.9529 19.3001 14.9529 19.3001 14.9529 19.3001C14.9672 19.2431 14.976 19.1856 14.9793 19.1283M15.034 19.0307L14.9632 18.8949M15.034 19.0307C15.0267 18.8726 14.985 18.7169 14.905 18.5779C14.8868 18.586 14.8688 18.5944 14.851 18.6032M14.9793 19.1283C14.9812 19.0965 14.9814 19.0648 14.98 19.0332C14.9779 18.9866 14.9723 18.9404 14.9632 18.8949M14.9793 19.1283L14.9632 18.8949M14.9632 18.8949L14.8193 18.6193C14.8298 18.6138 14.8404 18.6085 14.851 18.6032M14.9632 18.8949L14.8144 18.5463C14.8273 18.5649 14.8395 18.5839 14.851 18.6032M14.9632 18.8949C14.9428 18.7929 14.905 18.6944 14.851 18.6032M16.0426 20.7121L16.1219 20.5776C16.0876 20.6098 16.0506 20.6394 16.0113 20.6663C15.9962 20.6766 15.9807 20.6865 15.9649 20.696L15.9647 20.6961L15.9312 20.7163L16.0426 20.7121ZM8.63179 18.5525L8.57903 18.5247C8.56934 18.5422 8.54519 18.5857 8.50952 18.6499C8.50069 18.6658 8.49115 18.683 8.48095 18.7014C8.49914 18.7105 8.51748 18.7184 8.53585 18.7253C8.56722 18.6688 8.5992 18.6112 8.63179 18.5525ZM12.7788 23.8231C12.7787 23.8231 12.7787 23.8232 12.7786 23.8232L12.7788 23.8231Z" fill="#4CAF4F" stroke="#4CAF4F" stroke-width="0.928093"/>
<path d="M24.4805 19.3886L24.4805 19.3886L24.4805 19.3886ZM24.4805 19.3886C24.3833 19.2144 24.3872 18.9999 24.4902 18.8282L24.4805 19.3886ZM18.7389 18.9763C18.6664 18.9769 18.5935 18.9861 18.5216 19.0041L18.7389 18.9763ZM18.7389 18.9763C18.7403 18.9564 18.742 18.9364 18.7442 18.9164L18.7389 18.9763ZM24.0629 19.714L24.0235 19.643L24.0629 19.714ZM22.9447 21.3415C22.9446 21.3415 22.9445 21.3414 22.9444 21.3413L22.9446 21.3414L22.9447 21.3415ZM21.4559 23.8235C21.4557 23.8234 21.4556 23.8233 21.4555 23.8233L21.4559 23.8235ZM21.4554 23.8232L21.4555 23.8233L21.4554 23.8232Z" fill="#4CAF4F" stroke="#4CAF4F" stroke-width="0.928093"/>
</svg>
