<svg width="46" height="40" viewBox="0 0 46 40" fill="none" xmlns="http://www.w3.org/2000/svg">
<path d="M45.7922 26.8835C45.7922 33.8032 40.1827 39.4127 33.263 39.4127L14.4691 39.4127C12.547 39.4127 10.9888 37.8545 10.9888 35.9324L10.9888 12.266C10.9888 8.42172 14.1052 5.30531 17.9495 5.30531L42.3119 5.30532C44.234 5.30532 45.7922 6.86352 45.7922 8.78566L45.7922 26.8835Z" fill="#E8F5E9"/>
<path d="M19.2834 13.6657C19.0662 13.6657 18.8896 13.4895 18.8896 13.272V12.6029C18.8896 12.3857 19.0659 12.2091 19.2834 12.2091C19.5006 12.2091 19.6771 12.3854 19.6771 12.6029V13.272C19.6771 13.4895 19.5006 13.6657 19.2834 13.6657Z" fill="#103E13"/>
<path d="M17.6279 13.6657C17.4107 13.6657 17.2341 13.4895 17.2341 13.272V12.6029C17.2341 12.3857 17.4104 12.2091 17.6279 12.2091C17.8451 12.2091 18.0216 12.3854 18.0216 12.6029V13.272C18.0214 13.4895 17.8453 13.6657 17.6279 13.6657Z" fill="#103E13"/>
<path d="M15.9726 13.6657C15.7554 13.6657 15.5789 13.4895 15.5789 13.272V12.6029C15.5789 12.3857 15.7551 12.2091 15.9726 12.2091C16.1898 12.2091 16.3664 12.3854 16.3664 12.6029V13.272C16.3664 13.4895 16.1901 13.6657 15.9726 13.6657Z" fill="#103E13"/>
<path d="M19.2834 16.4022C19.0662 16.4022 18.8896 16.2259 18.8896 16.0084V15.3395C18.8896 15.1224 19.0659 14.9458 19.2834 14.9458C19.5006 14.9458 19.6771 15.1221 19.6771 15.3395V16.0084C19.6771 16.2259 19.5006 16.4022 19.2834 16.4022Z" fill="#103E13"/>
<path d="M17.6279 16.4022C17.4107 16.4022 17.2341 16.2259 17.2341 16.0084V15.3395C17.2341 15.1224 17.4104 14.9458 17.6279 14.9458C17.8451 14.9458 18.0216 15.1221 18.0216 15.3395V16.0084C18.0214 16.2259 17.8453 16.4022 17.6279 16.4022Z" fill="#103E13"/>
<path d="M15.9726 16.4022C15.7554 16.4022 15.5789 16.2259 15.5789 16.0084V15.3395C15.5789 15.1224 15.7551 14.9458 15.9726 14.9458C16.1898 14.9458 16.3664 15.1221 16.3664 15.3395V16.0084C16.3664 16.2259 16.1901 16.4022 15.9726 16.4022Z" fill="#103E13"/>
<path d="M19.2834 19.1385C19.0662 19.1385 18.8896 18.9622 18.8896 18.7448V18.0756C18.8896 17.8584 19.0659 17.6819 19.2834 17.6819C19.5006 17.6819 19.6771 17.8582 19.6771 18.0756V18.7448C19.6771 18.9622 19.5006 19.1385 19.2834 19.1385Z" fill="#103E13"/>
<path d="M17.6279 19.1385C17.4107 19.1385 17.2341 18.9622 17.2341 18.7448V18.0756C17.2341 17.8584 17.4104 17.6819 17.6279 17.6819C17.8451 17.6819 18.0216 17.8582 18.0216 18.0756V18.7448C18.0214 18.9622 17.8453 19.1385 17.6279 19.1385Z" fill="#103E13"/>
<path d="M15.9726 19.1385C15.7554 19.1385 15.5789 18.9622 15.5789 18.7448V18.0756C15.5789 17.8584 15.7551 17.6819 15.9726 17.6819C16.1898 17.6819 16.3664 17.8582 16.3664 18.0756V18.7448C16.3664 18.9622 16.1901 19.1385 15.9726 19.1385Z" fill="#103E13"/>
<path d="M19.2834 21.8744C19.0662 21.8744 18.8896 21.6981 18.8896 21.4806V20.8115C18.8896 20.5943 19.0659 20.4177 19.2834 20.4177C19.5006 20.4177 19.6771 20.594 19.6771 20.8115V21.4806C19.6771 21.6981 19.5006 21.8744 19.2834 21.8744Z" fill="#103E13"/>
<path d="M17.6279 21.8744C17.4107 21.8744 17.2341 21.6981 17.2341 21.4806V20.8115C17.2341 20.5943 17.4104 20.4177 17.6279 20.4177C17.8451 20.4177 18.0216 20.594 18.0216 20.8115V21.4806C18.0214 21.6981 17.8453 21.8744 17.6279 21.8744Z" fill="#103E13"/>
<path d="M15.9726 21.8744C15.7554 21.8744 15.5789 21.6981 15.5789 21.4806V20.8115C15.5789 20.5943 15.7551 20.4177 15.9726 20.4177C16.1898 20.4177 16.3664 20.594 16.3664 20.8115V21.4806C16.3664 21.6981 16.1901 21.8744 15.9726 21.8744Z" fill="#103E13"/>
<path d="M19.2834 24.6108C19.0662 24.6108 18.8896 24.4345 18.8896 24.217V23.5482C18.8896 23.331 19.0659 23.1544 19.2834 23.1544C19.5006 23.1544 19.6771 23.3307 19.6771 23.5482V24.217C19.6771 24.4342 19.5006 24.6108 19.2834 24.6108Z" fill="#103E13"/>
<path d="M17.6279 24.6108C17.4107 24.6108 17.2341 24.4345 17.2341 24.217V23.5482C17.2341 23.331 17.4104 23.1544 17.6279 23.1544C17.8451 23.1544 18.0216 23.3307 18.0216 23.5482V24.217C18.0214 24.4342 17.8453 24.6108 17.6279 24.6108Z" fill="#103E13"/>
<path d="M15.9726 24.6108C15.7554 24.6108 15.5789 24.4345 15.5789 24.217L15.5791 23.5482C15.5791 23.331 15.7554 23.1544 15.9729 23.1544C16.1901 23.1544 16.3666 23.3307 16.3666 23.5482V24.217C16.3664 24.4342 16.1901 24.6108 15.9726 24.6108Z" fill="#103E13"/>
<path d="M4.72445 27.334C4.72445 27.5512 4.90073 27.7277 5.1182 27.7277H29.0962C29.3134 27.7277 29.49 27.5514 29.49 27.334C29.49 27.1168 29.3137 26.9402 29.0962 26.9402H28.3684V15.6352C28.3684 15.418 28.1921 15.2414 27.9746 15.2414L21.5459 15.2417V7.09132C21.5459 6.95348 21.474 6.82608 21.3564 6.75468C21.2392 6.68302 21.0926 6.67863 20.9707 6.74205L13.6617 10.5475C13.5313 10.6153 13.45 10.7498 13.45 10.8967V18.0159H6.3765C6.15932 18.0159 5.98276 18.1922 5.98276 18.4097V26.9403H5.11732C4.90013 26.94 4.72412 27.1163 4.72412 27.3338L4.72445 27.334ZM21.546 21.2051H27.5813V26.9406L21.546 26.9403V21.2051ZM21.546 18.469H27.5813V20.4179L21.546 20.4177V18.469ZM21.546 16.0288H27.5813V17.682H21.546V16.0288ZM14.2371 11.1358L20.7583 7.74035V26.9399H14.2371V11.1358ZM8.71669 23.7954C8.71669 22.9783 9.36414 22.3132 10.1601 22.3132C10.9561 22.3132 11.6039 22.978 11.6039 23.7954V26.9404H8.71669V23.7954ZM6.77023 18.8033H13.4499V26.9403H12.3913V23.7953C12.3913 22.544 11.3908 21.5259 10.1601 21.5259C8.93003 21.5259 7.92949 22.5437 7.92949 23.7953V26.9403H6.77023V18.8033Z" fill="#103E13"/>
</svg>
