<svg width="134" height="22" viewBox="0 0 134 22" fill="none" xmlns="http://www.w3.org/2000/svg">
<path d="M17.0183 12.0322L12.379 19.9777L7.7398 12.0322H17.0183ZM18.2611 11.3221H6.49194L12.379 21.3831L18.2611 11.3221Z" fill="white"/>
<path d="M25.0843 2.14975L29.7235 10.0953H20.445L25.0843 2.14975ZM25.0843 0.729492L19.1971 10.7905H30.9713L25.0843 0.729492Z" fill="white"/>
<path d="M0.85144 0.729492L5.78757 9.62848L11.1815 0.952948L0.85144 0.729492Z" fill="#4CAF4F"/>
<path d="M12.3792 1.50897L17.5569 10.3583H7.19153L12.3792 1.50897Z" fill="#4CAF4F"/>
<path d="M18.8903 12.2904L24.073 21.3831H13.4611L18.7293 12.2904H18.8903Z" fill="#4CAF4F"/>
<path d="M20.0122 11.7391L25.0842 20.6927L30.2266 11.7391H20.0122Z" fill="#4CAF4F"/>
<path d="M52.5136 2.16571V19.69H49.3133L41.6893 8.6603H41.5609V19.69H37.8558V2.16571H41.1074L48.6716 13.1868H48.8256V2.16571H52.5136Z" fill="white"/>
<path d="M61.496 19.9467C60.1441 19.9467 58.9804 19.6729 58.0049 19.1252C57.0351 18.5719 56.2878 17.7904 55.763 16.7807C55.2382 15.7653 54.9758 14.5645 54.9758 13.1783C54.9758 11.8263 55.2382 10.6398 55.763 9.61866C56.2878 8.59755 57.0266 7.80177 57.9792 7.23132C58.9376 6.66087 60.0614 6.37564 61.3506 6.37564C62.2177 6.37564 63.0249 6.5154 63.7722 6.79492C64.5251 7.06874 65.1812 7.48232 65.7402 8.03565C66.305 8.58899 66.7442 9.28494 67.0579 10.1235C67.3717 10.9564 67.5286 11.9318 67.5286 13.0499V14.0511H56.4304V11.7921H64.0973C64.0973 11.2673 63.9832 10.8023 63.755 10.3973C63.5269 9.9923 63.2103 9.6757 62.8052 9.44752C62.4059 9.21364 61.941 9.09669 61.4105 9.09669C60.8571 9.09669 60.3666 9.22504 59.9387 9.48175C59.5166 9.73275 59.1857 10.0722 58.9461 10.5C58.7065 10.9221 58.5839 11.3928 58.5782 11.9119V14.0596C58.5782 14.7099 58.698 15.2718 58.9376 15.7453C59.1829 16.2188 59.528 16.5839 59.9729 16.8406C60.4179 17.0973 60.9456 17.2256 61.5559 17.2256C61.961 17.2256 62.3318 17.1686 62.6683 17.0545C63.0049 16.9404 63.293 16.7693 63.5326 16.5411C63.7721 16.3129 63.9547 16.0334 64.0802 15.7025L67.4516 15.925C67.2804 16.735 66.9296 17.4424 66.3991 18.0471C65.8743 18.646 65.1954 19.1138 64.3626 19.4504C63.5354 19.7812 62.5799 19.9467 61.496 19.9467Z" fill="white"/>
<path d="M72.7183 6.54678L75.1313 11.1418L77.6042 6.54678H81.3435L77.5357 13.1184L81.4462 19.69H77.724L75.1313 15.1463L72.5813 19.69H68.8164L72.7183 13.1184L68.9533 6.54678H72.7183Z" fill="white"/>
<path d="M88.9761 19.9467C87.6298 19.9467 86.4718 19.6615 85.5021 19.091C84.538 18.5148 83.7964 17.7162 83.2773 16.6951C82.7639 15.674 82.5072 14.4989 82.5072 13.1697C82.5072 11.8235 82.7668 10.6426 83.2859 9.62721C83.8107 8.60611 84.5551 7.81033 85.5192 7.23987C86.4832 6.66372 87.6298 6.37564 88.959 6.37564C90.1056 6.37564 91.1096 6.58386 91.971 7.00028C92.8324 7.41671 93.514 8.00143 94.016 8.75442C94.518 9.50742 94.7947 10.3916 94.8461 11.407H91.4062C91.3093 10.751 91.0526 10.2233 90.6361 9.82402C90.2254 9.419 89.6863 9.21649 89.0189 9.21649C88.4542 9.21649 87.9607 9.37051 87.5386 9.67855C87.1221 9.98089 86.797 10.423 86.5631 11.0049C86.3292 11.5867 86.2123 12.2912 86.2123 13.1184C86.2123 13.9569 86.3264 14.67 86.5545 15.2576C86.7884 15.8451 87.1164 16.2929 87.5386 16.601C87.9607 16.909 88.4542 17.063 89.0189 17.063C89.4353 17.063 89.809 16.9775 90.1398 16.8063C90.4764 16.6352 90.7531 16.3871 90.9698 16.0619C91.1923 15.731 91.3378 15.3346 91.4062 14.8725H94.8461C94.789 15.8765 94.5152 16.7607 94.0246 17.5251C93.5397 18.2838 92.8694 18.8771 92.0138 19.3049C91.1581 19.7328 90.1455 19.9467 88.9761 19.9467Z" fill="white"/>
<path d="M103.17 19.9467C101.818 19.9467 100.654 19.6729 99.6785 19.1252C98.7087 18.5719 97.9614 17.7904 97.4366 16.7807C96.9118 15.7653 96.6494 14.5645 96.6494 13.1783C96.6494 11.8263 96.9118 10.6398 97.4366 9.61866C97.9614 8.59755 98.7002 7.80177 99.6528 7.23132C100.611 6.66087 101.735 6.37564 103.024 6.37564C103.891 6.37564 104.698 6.5154 105.446 6.79492C106.199 7.06874 106.855 7.48232 107.414 8.03565C107.979 8.58899 108.418 9.28494 108.732 10.1235C109.045 10.9564 109.202 11.9318 109.202 13.0499V14.0511H98.104V11.7921H105.771C105.771 11.2673 105.657 10.8023 105.429 10.3973C105.2 9.9923 104.884 9.6757 104.479 9.44752C104.08 9.21364 103.615 9.09669 103.084 9.09669C102.531 9.09669 102.04 9.22504 101.612 9.48175C101.19 9.73275 100.859 10.0722 100.62 10.5C100.38 10.9221 100.257 11.3928 100.252 11.9119V14.0596C100.252 14.7099 100.372 15.2718 100.611 15.7453C100.856 16.2188 101.202 16.5839 101.647 16.8406C102.091 17.0973 102.619 17.2256 103.23 17.2256C103.635 17.2256 104.005 17.1686 104.342 17.0545C104.678 16.9404 104.967 16.7693 105.206 16.5411C105.446 16.3129 105.628 16.0334 105.754 15.7025L109.125 15.925C108.954 16.735 108.603 17.4424 108.073 18.0471C107.548 18.646 106.869 19.1138 106.036 19.4504C105.209 19.7812 104.254 19.9467 103.17 19.9467Z" fill="white"/>
<path d="M115.226 12.0916V19.69H111.581V6.54678H115.055V8.86566H115.209C115.5 8.10126 115.988 7.49658 116.672 7.05162C117.357 6.60097 118.187 6.37564 119.162 6.37564C120.075 6.37564 120.871 6.5753 121.55 6.97462C122.228 7.37393 122.756 7.94438 123.133 8.68597C123.509 9.42185 123.697 10.3003 123.697 11.3215V19.69H120.052V11.9718C120.058 11.1674 119.853 10.5399 119.436 10.0893C119.02 9.63292 118.446 9.40474 117.716 9.40474C117.226 9.40474 116.792 9.51027 116.416 9.72134C116.045 9.93241 115.754 10.2404 115.543 10.6455C115.337 11.0448 115.232 11.5268 115.226 12.0916Z" fill="white"/>
<path d="M133.561 6.54678V9.28494H125.646V6.54678H133.561ZM127.443 3.39789H131.088V15.6512C131.088 15.9877 131.14 16.2502 131.242 16.4384C131.345 16.6209 131.488 16.7493 131.67 16.8235C131.858 16.8976 132.075 16.9347 132.32 16.9347C132.492 16.9347 132.663 16.9204 132.834 16.8919C133.005 16.8577 133.136 16.832 133.227 16.8149L133.801 19.5274C133.618 19.5844 133.361 19.65 133.031 19.7242C132.7 19.8041 132.298 19.8526 131.824 19.8697C130.946 19.9039 130.176 19.7869 129.514 19.5188C128.858 19.2507 128.347 18.8343 127.982 18.2696C127.617 17.7048 127.437 16.9917 127.443 16.1304V3.39789Z" fill="white"/>
</svg>
