<svg width="34" height="34" viewBox="0 0 34 34" fill="none" xmlns="http://www.w3.org/2000/svg">
<g clip-path="url(#clip0_211_2046)">
<path fill-rule="evenodd" clip-rule="evenodd" d="M9.97901 3.15002C13.8233 3.15002 16.9397 6.26643 16.9397 10.1107V3.15002H23.9004C27.7446 3.15002 30.8611 6.26643 30.8611 10.1107C30.8611 13.955 27.7446 17.0714 23.9004 17.0714C27.7446 17.0714 30.8611 20.1879 30.8611 24.0321C30.8611 25.9409 30.0927 27.6703 28.8484 28.9278L28.8224 28.9541L28.7993 28.9771C27.5415 30.2232 25.8108 30.9928 23.9004 30.9928C22.003 30.9928 20.2829 30.2336 19.0272 29.0024C19.0109 28.9864 18.9946 28.9702 18.9784 28.9541C18.9632 28.9388 18.948 28.9235 18.9329 28.9081C17.7001 27.6523 16.9397 25.931 16.9397 24.0321C16.9397 27.8764 13.8233 30.9928 9.97901 30.9928C6.13472 30.9928 3.01831 27.8764 3.01831 24.0321V17.0714H9.97901C6.13472 17.0714 3.01831 13.955 3.01831 10.1107C3.01831 6.26643 6.13472 3.15002 9.97901 3.15002ZM15.5476 10.1107C15.5476 13.1862 13.0544 15.6793 9.97901 15.6793V4.54216C13.0544 4.54216 15.5476 7.03529 15.5476 10.1107ZM29.469 24.0321C29.469 20.9567 26.9758 18.4636 23.9004 18.4636C20.825 18.4636 18.3318 20.9567 18.3318 24.0321H29.469ZM4.41045 18.4636V24.0321C4.41045 27.1076 6.90358 29.6007 9.97901 29.6007C13.0544 29.6007 15.5476 27.1076 15.5476 24.0321V18.4636H4.41045ZM18.3318 15.6793V4.54216H23.9004C26.9758 4.54216 29.469 7.03529 29.469 10.1107C29.469 13.1862 26.9758 15.6793 23.9004 15.6793H18.3318Z" fill="#263238"/>
</g>
<defs>
<clipPath id="clip0_211_2046">
<rect width="27.8428" height="27.8428" fill="white" transform="translate(3.01831 3.15002)"/>
</clipPath>
</defs>
</svg>
