<svg width="39" height="34" viewBox="0 0 39 34" fill="none" xmlns="http://www.w3.org/2000/svg">
<g clip-path="url(#clip0_211_2052)">
<path d="M38.5803 13.9505C38.5843 13.9215 38.5843 13.8921 38.5803 13.8631C38.5841 13.8395 38.5841 13.8153 38.5803 13.7916L38.2967 11.7503C38.2558 11.5061 38.1463 11.2778 37.9807 11.0911L37.9321 11.0354L37.843 10.9481L32.9332 6.80188L33.0709 6.93692C32.9582 6.80475 32.8168 6.69903 32.657 6.62755C32.4971 6.55607 32.323 6.52065 32.1473 6.52389H30.6565C30.4141 6.51918 30.1772 6.59474 29.9841 6.73835C29.7812 6.59561 29.537 6.52043 29.2873 6.52389H27.7965C27.601 6.52078 27.4082 6.56835 27.2374 6.6618C27.0667 6.75525 26.9242 6.89126 26.8243 7.05606C26.6703 7.29144 26.6125 7.57503 26.6623 7.85035L26.8486 9.1371C26.7252 9.06849 26.5854 9.03289 26.4435 9.03385H19.2247C18.9657 9.03544 18.7126 9.10987 18.4955 9.2483C18.2855 9.37715 18.1169 9.56165 18.0094 9.78047L17.4503 9.31184C17.2303 9.11226 16.9399 9.00408 16.6401 9.01002H5.3136C5.05368 9.01466 4.79953 9.08585 4.57634 9.21653C4.271 9.39174 4.04722 9.67663 3.95248 10.0108L0.355205 21.806C0.287991 22.0004 0.28138 22.21 0.336216 22.4081C0.391053 22.6061 0.504855 22.7837 0.663083 22.918C0.704313 22.9523 0.747604 22.9841 0.792718 23.0133C0.792718 23.0133 0.719788 22.9657 0.679278 22.926L5.58909 27.0801C5.79678 27.2676 6.06833 27.3724 6.35062 27.374H17.7663C18.027 27.3673 18.2813 27.2934 18.5036 27.1595C18.6293 27.0922 18.7418 27.0034 18.8358 26.8974L18.8763 26.8418L18.9411 26.7624L18.9897 26.675L19.5245 27.1278C19.7292 27.3078 19.9948 27.4068 20.2698 27.4058H31.7098C31.9702 27.3973 32.2241 27.3234 32.4471 27.1913C32.5699 27.1198 32.6818 27.0316 32.7793 26.9292L32.8197 26.8736L32.8846 26.7942C32.919 26.7439 32.9489 26.6908 32.9737 26.6353C33.0001 26.5871 33.0218 26.5366 33.0385 26.4844L36.3198 15.7138V15.6185C36.3238 15.5815 36.3238 15.5443 36.3198 15.5073V15.4358C36.3237 15.4121 36.3237 15.388 36.3198 15.3643C36.3235 15.3141 36.3235 15.2637 36.3198 15.2134H37.3731C37.4647 15.2216 37.5569 15.2216 37.6485 15.2134H37.7215C37.7807 15.1961 37.8378 15.172 37.8916 15.1419H37.9726L38.1184 15.0307L38.1833 14.9831L38.2967 14.8401V14.7925L38.3777 14.6574C38.3732 14.6312 38.3732 14.6043 38.3777 14.578C38.3734 14.5651 38.3734 14.5512 38.3777 14.5383C38.3949 14.4917 38.4085 14.4439 38.4182 14.3953C38.4144 14.3796 38.4144 14.3633 38.4182 14.3476C38.4143 14.324 38.4143 14.2998 38.4182 14.2762C38.4182 14.2762 38.5803 13.9664 38.5803 13.9505Z" fill="black"/>
<path d="M16.9723 9.91554C17.0154 9.95367 17.0454 10.0038 17.0584 10.0592C17.0715 10.1146 17.0669 10.1726 17.0453 10.2253L13.4561 22.0126C13.4109 22.1413 13.3185 22.2488 13.1969 22.3144C13.0979 22.3793 12.9834 22.4176 12.8646 22.4256H1.45711C1.35969 22.421 1.26739 22.3814 1.19784 22.3144C1.15647 22.2769 1.12743 22.2281 1.11444 22.1744C1.10145 22.1206 1.10511 22.0643 1.12493 22.0126L4.7222 10.2253C4.76365 10.095 4.8532 9.98453 4.97336 9.91554C5.07394 9.85531 5.18793 9.81987 5.30554 9.81228H16.7131C16.8097 9.81319 16.9024 9.85011 16.9723 9.91554ZM11.0174 19.6376L13.1644 12.6002H7.1528L5.01386 19.6376H11.0174ZM27.8614 10.0347C27.9003 10.079 27.9489 10.1142 28.0037 10.1376C28.0584 10.1609 28.1177 10.1719 28.1774 10.1697H29.66C29.7165 10.1702 29.7721 10.1567 29.8218 10.1303C29.8714 10.1039 29.9133 10.0655 29.9436 10.0188C29.9699 9.98231 29.9885 9.94101 29.9982 9.89735C30.008 9.85369 30.0087 9.80856 30.0003 9.76462L29.7086 7.6677C29.6809 7.57065 29.631 7.48103 29.5628 7.40558C29.5238 7.36124 29.4752 7.32607 29.4205 7.30269C29.3658 7.27932 29.3064 7.26833 29.2468 7.27055H27.7642C27.7077 7.27001 27.652 7.28359 27.6024 7.30999C27.5528 7.3364 27.5109 7.37476 27.4806 7.42147C27.4239 7.53267 27.3996 7.60415 27.4239 7.6677L27.7237 9.76462C27.739 9.86673 27.7873 9.96134 27.8614 10.0347ZM32.5686 7.65181C32.5408 7.55476 32.4909 7.46514 32.4228 7.38969C32.3855 7.34551 32.3383 7.31036 32.2849 7.28694C32.2315 7.26353 32.1734 7.25248 32.1149 7.25467H30.6241C30.5686 7.25312 30.5137 7.26632 30.4652 7.29289C30.4167 7.31946 30.3765 7.3584 30.3487 7.40558C30.2948 7.47605 30.2714 7.56456 30.2839 7.65181L30.5836 9.74873C30.6024 9.84976 30.6502 9.94344 30.7214 10.0188C30.761 10.0623 30.8098 10.0968 30.8643 10.1201C30.9189 10.1435 30.9778 10.1549 31.0373 10.1538H32.5281C32.5835 10.1545 32.6381 10.141 32.6864 10.1145C32.7348 10.088 32.7752 10.0495 32.8036 10.0029C32.8318 9.96737 32.8515 9.92609 32.8613 9.88211C32.8711 9.83814 32.8708 9.79257 32.8603 9.74873L32.5686 7.65181ZM26.557 10.829L26.4111 9.79639H19.2247C19.1119 9.80249 19.0027 9.83815 18.9087 9.89965C18.849 9.93155 18.7971 9.97577 18.7565 10.0292C18.716 10.0827 18.6878 10.1442 18.6738 10.2094L18.0742 12.1792C18.0503 12.2285 18.0421 12.2837 18.0508 12.3376C18.0595 12.3915 18.0846 12.4415 18.1228 12.4811C18.1911 12.5441 18.2803 12.5808 18.374 12.5844H27.1079L24.9609 19.6218H16.2513C16.139 19.6243 16.0296 19.6573 15.9353 19.7171C15.8207 19.7884 15.737 19.8987 15.7004 20.0268L15.0927 21.9967C15.0729 22.0472 15.0677 22.1022 15.0777 22.1554C15.0877 22.2087 15.1125 22.2582 15.1494 22.2985C15.2156 22.3657 15.3054 22.4055 15.4006 22.4097H26.8405C26.9588 22.3997 27.0729 22.3616 27.1727 22.2985C27.2923 22.2326 27.3821 22.1248 27.4239 21.9967L30.7132 11.2261H27.0107C26.9519 11.2272 26.8936 11.2166 26.8392 11.1947C26.7849 11.1728 26.7357 11.1403 26.6947 11.099C26.6277 11.027 26.5804 10.9396 26.557 10.8449V10.829Z" fill="white"/>
</g>
<defs>
<clipPath id="clip0_211_2052">
<rect width="38.2838" height="20.8821" fill="white" transform="translate(0.299438 6.52368)"/>
</clipPath>
</defs>
</svg>
