<svg width="34" height="34" viewBox="0 0 34 34" fill="none" xmlns="http://www.w3.org/2000/svg">
<g clip-path="url(#clip0_211_2072)">
<path d="M30.0806 8.5032C30.0806 8.82756 30.3467 9.09051 30.6751 9.09051H31.2697C31.5981 9.09051 31.8642 8.82756 31.8642 8.5032C31.8642 8.17884 31.5981 7.91589 31.2697 7.91589H30.6751C30.3467 7.91589 30.0806 8.17884 30.0806 8.5032Z" fill="#212326"/>
<path d="M12.8384 26.7098H15.7267L14.8858 25.8792C14.6628 25.6589 14.3604 25.5352 14.045 25.5352H12.8384C8.24126 25.5352 4.51456 21.8539 4.51456 17.3128C4.51456 12.7718 8.24126 9.09052 12.8384 9.09051H22.3513C26.9485 9.09051 30.6752 12.7718 30.6752 17.3128C30.6752 21.8539 26.9485 25.5352 22.3513 25.5352H18.7927C18.3197 25.5352 17.866 25.3495 17.5315 25.0191L16.5464 24.046C15.9889 23.4953 15.2327 23.1859 14.4443 23.1859H12.8384C9.55471 23.1859 6.8928 20.5565 6.8928 17.3128C6.8928 14.0692 9.55471 11.4397 12.8384 11.4397H22.3513C25.635 11.4397 28.2969 14.0692 28.2969 17.3128C28.2969 20.5565 25.635 23.1859 22.3513 23.1859H20.0664C19.5933 23.1859 19.1396 23.0003 18.8051 22.6699L17.82 21.6968C17.2625 21.1461 16.5063 20.8367 15.7179 20.8367H12.8384C10.8682 20.8367 9.27103 19.259 9.27103 17.3128C9.27103 15.3667 10.8682 13.789 12.8384 13.789H22.3513C24.3215 13.789 25.9187 15.3667 25.9187 17.3128C25.9187 19.2353 24.3602 20.7982 22.4233 20.836L22.4229 20.8367H21.5528C21.0797 20.8367 20.626 20.651 20.2915 20.3206L19.3064 19.3476C18.849 18.8957 18.2578 18.6063 17.6247 18.517L17.5949 18.4874H12.8384C12.1817 18.4874 11.6493 17.9615 11.6493 17.3128C11.6493 16.6641 12.1817 16.1382 12.8384 16.1382H22.3513C23.0081 16.1382 23.5405 16.6641 23.5405 17.3128C23.5405 17.9615 23.0081 18.4874 22.3513 18.4874H19.9731L20.814 19.318C21.0369 19.5383 21.3394 19.6621 21.6548 19.6621H22.3513C23.6648 19.6621 24.7296 18.6103 24.7296 17.3128C24.7296 16.0154 23.6648 14.9636 22.3513 14.9636H12.8384C11.5249 14.9636 10.4602 16.0154 10.4602 17.3128C10.4602 18.6103 11.5249 19.6621 12.8384 19.6621H17.2043C17.6774 19.6621 18.1311 19.8477 18.4656 20.1781L19.4507 21.1512C20.0082 21.7019 20.7643 22.0113 21.5528 22.0113H22.6486V22.0023C25.1371 21.8507 27.1078 19.8091 27.1078 17.3128C27.1078 14.718 24.9782 12.6144 22.3513 12.6144H12.8384C10.2115 12.6144 8.08191 14.718 8.08191 17.3128C8.08191 19.9077 10.2115 22.0113 12.8384 22.0113H15.7179C16.191 22.0113 16.6447 22.1969 16.9792 22.5273L17.9643 23.5004C18.5218 24.0511 19.2779 24.3605 20.0664 24.3605H22.3513C26.2917 24.3605 29.4861 21.2052 29.4861 17.3128C29.4861 13.4205 26.2917 10.2651 22.3513 10.2651H12.8384C8.89798 10.2651 5.70368 13.4205 5.70368 17.3128C5.70368 21.2052 8.89798 24.3605 12.8384 24.3605H14.4443C14.9173 24.3605 15.371 24.5462 15.7055 24.8766L16.6907 25.8497C17.2482 26.4004 18.0043 26.7098 18.7927 26.7098H22.3513C27.6052 26.7098 31.8643 22.5026 31.8643 17.3128C31.8643 12.123 27.6052 7.91589 22.3513 7.91589L12.8384 7.9159C7.58453 7.9159 3.32544 12.123 3.32544 17.3128C3.32544 22.5026 7.58453 26.7098 12.8384 26.7098Z" fill="#212326"/>
</g>
<defs>
<clipPath id="clip0_211_2072">
<rect width="28.5388" height="18.7939" fill="white" transform="translate(3.32544 7.91589)"/>
</clipPath>
</defs>
</svg>
