<svg width="39" height="34" viewBox="0 0 39 34" fill="none" xmlns="http://www.w3.org/2000/svg">
<g clip-path="url(#clip0_211_2080)">
<path d="M38.8874 13.9505C38.8913 13.9215 38.8913 13.8921 38.8874 13.8631C38.8911 13.8395 38.8911 13.8153 38.8874 13.7916L38.6037 11.7503C38.5628 11.5061 38.4534 11.2778 38.2878 11.0911L38.2391 11.0354L38.1501 10.9481L33.2403 6.80188L33.378 6.93692C33.2653 6.80475 33.1239 6.69903 32.964 6.62755C32.8042 6.55607 32.63 6.52065 32.4544 6.52389H30.9636C30.7212 6.51918 30.4843 6.59474 30.2911 6.73835C30.0883 6.59561 29.8441 6.52043 29.5944 6.52389H28.1036C27.9081 6.52078 27.7152 6.56835 27.5445 6.6618C27.3738 6.75525 27.2313 6.89126 27.1314 7.05606C26.9774 7.29144 26.9196 7.57503 26.9693 7.85035L27.1557 9.1371C27.0322 9.06849 26.8925 9.03289 26.7506 9.03385H19.5317C19.2727 9.03544 19.0197 9.10987 18.8025 9.2483C18.5926 9.37715 18.424 9.56165 18.3164 9.78047L17.7574 9.31184C17.5374 9.11226 17.2469 9.00408 16.9472 9.01002H5.62067C5.36075 9.01466 5.1066 9.08585 4.88341 9.21653C4.57806 9.39174 4.35429 9.67663 4.25954 10.0108L0.662273 21.806C0.595059 22.0004 0.588447 22.21 0.643284 22.4081C0.698121 22.6061 0.811922 22.7837 0.970151 22.918C1.01138 22.9523 1.05467 22.9841 1.09979 23.0133C1.09979 23.0133 1.02686 22.9657 0.986346 22.926L5.89616 27.0801C6.10385 27.2676 6.3754 27.3724 6.65769 27.374H18.0734C18.3341 27.3673 18.5884 27.2934 18.8107 27.1595C18.9364 27.0922 19.0488 27.0034 19.1428 26.8974L19.1834 26.8418L19.2482 26.7624L19.2968 26.675L19.8315 27.1278C20.0362 27.3078 20.3019 27.4068 20.5769 27.4058H32.0168C32.2773 27.3973 32.5311 27.3234 32.7541 27.1913C32.877 27.1198 32.9888 27.0316 33.0863 26.9292L33.1268 26.8736L33.1916 26.7942C33.2261 26.7439 33.256 26.6908 33.2807 26.6353C33.3072 26.5871 33.3289 26.5366 33.3456 26.4844L36.6269 15.7138V15.6185C36.6309 15.5815 36.6309 15.5443 36.6269 15.5073V15.4358C36.6308 15.4121 36.6308 15.388 36.6269 15.3643C36.6305 15.3141 36.6305 15.2637 36.6269 15.2134H37.6801C37.7717 15.2216 37.8639 15.2216 37.9556 15.2134H38.0285C38.0878 15.1961 38.1449 15.172 38.1987 15.1419H38.2797L38.4255 15.0307L38.4903 14.9831L38.6037 14.8401V14.7925L38.6848 14.6574C38.6802 14.6312 38.6802 14.6043 38.6848 14.578C38.6805 14.5651 38.6805 14.5512 38.6848 14.5383C38.702 14.4917 38.7155 14.4439 38.7253 14.3953C38.7215 14.3796 38.7215 14.3633 38.7253 14.3476C38.7213 14.324 38.7213 14.2998 38.7253 14.2762C38.7253 14.2762 38.8874 13.9664 38.8874 13.9505Z" fill="black"/>
<path d="M17.2793 9.91554C17.3224 9.95367 17.3524 10.0038 17.3654 10.0592C17.3785 10.1146 17.3739 10.1726 17.3523 10.2253L13.7631 22.0126C13.7179 22.1413 13.6255 22.2488 13.5039 22.3144C13.4049 22.3793 13.2904 22.4176 13.1716 22.4256H1.76412C1.66669 22.421 1.5744 22.3814 1.50485 22.3144C1.46348 22.2769 1.43444 22.2281 1.42145 22.1744C1.40846 22.1206 1.41212 22.0643 1.43193 22.0126L5.0292 10.2253C5.07065 10.095 5.16021 9.98453 5.28036 9.91554C5.38095 9.85531 5.49493 9.81987 5.61254 9.81228H17.0201C17.1167 9.81319 17.2094 9.85011 17.2793 9.91554ZM11.3244 19.6376L13.4714 12.6002H7.45981L5.32086 19.6376H11.3244ZM28.1684 10.0347C28.2073 10.079 28.256 10.1142 28.3107 10.1376C28.3654 10.1609 28.4247 10.1719 28.4844 10.1697H29.967C30.0235 10.1702 30.0791 10.1567 30.1288 10.1303C30.1784 10.1039 30.2203 10.0655 30.2506 10.0188C30.2769 9.98231 30.2955 9.94101 30.3053 9.89735C30.315 9.85369 30.3157 9.80856 30.3073 9.76462L30.0156 7.6677C29.9879 7.57065 29.938 7.48103 29.8698 7.40558C29.8309 7.36124 29.7823 7.32607 29.7275 7.30269C29.6728 7.27932 29.6134 7.26833 29.5538 7.27055H28.0712C28.0147 7.27001 27.959 7.28359 27.9094 7.30999C27.8598 7.3364 27.8179 7.37476 27.7876 7.42147C27.7309 7.53267 27.7066 7.60415 27.7309 7.6677L28.0307 9.76462C28.046 9.86673 28.0943 9.96134 28.1684 10.0347ZM32.8756 7.65181C32.8478 7.55476 32.798 7.46514 32.7298 7.38969C32.6925 7.34551 32.6453 7.31036 32.5919 7.28694C32.5385 7.26353 32.4804 7.25248 32.4219 7.25467H30.9311C30.8756 7.25312 30.8207 7.26632 30.7722 7.29289C30.7237 7.31946 30.6835 7.3584 30.6557 7.40558C30.6018 7.47605 30.5785 7.56456 30.5909 7.65181L30.8906 9.74873C30.9094 9.84976 30.9572 9.94344 31.0284 10.0188C31.068 10.0623 31.1168 10.0968 31.1713 10.1201C31.2259 10.1435 31.2848 10.1549 31.3443 10.1538H32.8351C32.8905 10.1545 32.9451 10.141 32.9934 10.1145C33.0418 10.088 33.0822 10.0495 33.1106 10.0029C33.1388 9.96737 33.1585 9.92609 33.1683 9.88211C33.1781 9.83814 33.1778 9.79257 33.1673 9.74873L32.8756 7.65181ZM26.864 10.829L26.7181 9.79639H19.5317C19.4189 9.80249 19.3097 9.83815 19.2157 9.89965C19.156 9.93155 19.1041 9.97577 19.0635 10.0292C19.023 10.0827 18.9948 10.1442 18.9808 10.2094L18.3812 12.1792C18.3573 12.2285 18.3491 12.2837 18.3578 12.3376C18.3665 12.3915 18.3916 12.4415 18.4298 12.4811C18.4981 12.5441 18.5873 12.5808 18.681 12.5844H27.4149L25.2679 19.6218H16.5583C16.446 19.6243 16.3366 19.6573 16.2423 19.7171C16.1277 19.7884 16.0441 19.8987 16.0074 20.0268L15.3997 21.9967C15.3799 22.0472 15.3747 22.1022 15.3847 22.1554C15.3947 22.2087 15.4195 22.2582 15.4564 22.2985C15.5226 22.3657 15.6125 22.4055 15.7076 22.4097H27.1475C27.2658 22.3997 27.3799 22.3616 27.4797 22.2985C27.5993 22.2326 27.6891 22.1248 27.7309 21.9967L31.0203 11.2261H27.3177C27.2589 11.2272 27.2006 11.2166 27.1463 11.1947C27.0919 11.1728 27.0427 11.1403 27.0017 11.099C26.9347 11.027 26.8874 10.9396 26.864 10.8449V10.829Z" fill="white"/>
</g>
<defs>
<clipPath id="clip0_211_2080">
<rect width="38.2838" height="20.8821" fill="white" transform="translate(0.606506 6.52368)"/>
</clipPath>
</defs>
</svg>
